<svg width="24" height="24" viewBox="0 0 24 24" fill="none" xmlns="http://www.w3.org/2000/svg">
<path d="M12 11.1075L21.585 4.95C21.1997 4.66096 20.7317 4.50323 20.25 4.5H3.75004C3.26834 4.50323 2.8004 4.66096 2.41504 4.95L12 11.1075Z" fill="#1ABC9C"/>
<path d="M12.405 12.63L12.2775 12.69H12.2175C12.1484 12.7209 12.0751 12.7411 12 12.75C11.9377 12.7579 11.8748 12.7579 11.8125 12.75H11.7525L11.625 12.69L1.575 6.19501C1.52698 6.37616 1.50179 6.56261 1.5 6.75001V17.25C1.5 17.8467 1.73705 18.419 2.15901 18.841C2.58097 19.263 3.15326 19.5 3.75 19.5H20.25C20.8467 19.5 21.419 19.263 21.841 18.841C22.2629 18.419 22.5 17.8467 22.5 17.25V6.75001C22.4982 6.56261 22.473 6.37616 22.425 6.19501L12.405 12.63Z" fill="#1ABC9C"/>
</svg>
